<svg version="1.1" xmlns="http://www.w3.org/2000/svg" xmlns:xlink="http://www.w3.org/1999/xlink" width="512.000000pt" height="512.000000pt" viewBox="0,0,256,256"><g fill="#004478" fill-rule="nonzero" stroke="none" stroke-width="1" stroke-linecap="butt" stroke-linejoin="miter" stroke-miterlimit="10" stroke-dasharray="" stroke-dashoffset="0" font-family="none" font-weight="none" font-size="none" text-anchor="none" style="mix-blend-mode: normal"><g transform="translate(0.01875,-0.01602) scale(0.5,0.5)"><g transform="translate(0,512) scale(0.1,-0.1)"><path d="M1876,4784c-79,-19 -169,-69 -227,-125c-27,-26 -95,-118 -152,-206c-61,-93 -122,-174 -147,-196c-46,-39 -68,-47 -334,-121c-71,-20 -153,-50 -182,-67c-76,-43 -158,-130 -198,-209c-51,-103 -60,-172 -49,-390c9,-189 5,-246 -22,-304c-9,-18 -59,-86 -112,-152c-190,-235 -218,-291 -218,-454c0,-160 25,-212 199,-430c64,-80 123,-159 131,-177c27,-57 31,-114 22,-303c-11,-217 -2,-287 49,-389c39,-78 124,-168 199,-211c28,-16 110,-46 181,-66c266,-74 288,-82 334,-121c25,-22 86,-103 147,-196c57,-88 125,-180 152,-206c99,-96 243,-148 384,-137c64,4 112,18 270,78c254,96 267,97 489,10c87,-34 183,-69 215,-77c157,-41 345,10 464,126c27,26 95,118 152,206c61,93 122,174 148,196c45,39 50,41 318,117c79,22 168,54 196,70c70,40 156,129 194,199c54,102 64,170 54,381c-13,297 -15,289 138,481c143,179 163,208 190,284c31,85 31,245 0,330c-27,76 -47,105 -190,284c-153,192 -151,184 -138,481c10,211 0,279 -54,381c-38,70 -124,159 -194,199c-28,16 -117,48 -196,70c-268,76 -273,78 -318,117c-26,22 -87,103 -148,196c-57,87 -126,180 -154,207c-101,97 -241,147 -382,136c-64,-4 -112,-18 -270,-78c-254,-96 -267,-97 -489,-10c-87,34 -183,69 -215,77c-70,18 -159,18 -237,-1zM2255,4507l190,-72h115h115l195,74c210,81 253,88 343,62c73,-21 130,-80 243,-251c104,-159 149,-211 219,-260c58,-40 96,-54 283,-105c208,-57 217,-60 270,-109c91,-84 104,-140 90,-388c-16,-301 -1,-349 191,-588c144,-180 165,-219 165,-310c0,-91 -21,-129 -165,-310c-192,-239 -207,-287 -191,-588c14,-248 1,-304 -90,-388c-53,-49 -62,-52 -270,-109c-187,-51 -225,-65 -283,-105c-70,-49 -114,-101 -220,-260c-114,-173 -147,-209 -220,-241c-91,-41 -142,-33 -365,52l-195,74h-115h-115l-190,-73c-206,-80 -257,-89 -348,-63c-73,21 -130,80 -243,251c-167,253 -208,284 -484,360c-228,63 -235,65 -288,114c-91,84 -104,140 -90,389c16,299 0,349 -191,587c-144,180 -165,219 -165,310c0,91 21,130 165,310c191,238 207,288 191,587c-14,249 -1,305 90,389c53,49 60,51 288,114c274,75 319,108 477,350c132,201 169,238 264,265c79,22 123,13 334,-68z"></path><path d="M1745,3663c-122,-44 -214,-127 -268,-241c-30,-63 -32,-73 -32,-183c0,-112 1,-117 37,-190c68,-138 185,-225 335,-250c234,-38 462,129 504,370c33,185 -71,381 -249,468c-70,35 -83,38 -176,41c-77,2 -113,-2 -151,-15zM1953,3459c49,-13 115,-73 138,-124c11,-23 19,-64 19,-96c1,-210 -256,-309 -398,-155c-64,69 -79,162 -41,246c27,60 54,88 114,116c54,26 108,30 168,13z"></path><path d="M3305,3445c-17,-8 -391,-376 -832,-818c-629,-630 -802,-809 -808,-833c-15,-74 55,-144 128,-129c25,6 197,172 834,808c456,455 810,816 819,836c42,88 -54,180 -141,136z"></path><path d="M3151,2319c-75,-15 -168,-65 -224,-121c-220,-220 -159,-577 122,-716c73,-36 77,-37 191,-37c114,0 118,1 191,37c93,46 168,122 212,215c30,64 32,74 32,183c0,109 -2,119 -32,183c-90,189 -293,295 -492,256zM3335,2091c113,-53 165,-189 114,-301c-27,-60 -54,-88 -114,-116c-88,-42 -188,-25 -257,43c-77,75 -90,196 -32,289c57,92 189,131 289,85z"></path></g></g></g></svg>